HIERARCHY
ROOT Hips
{
  OFFSET 5.72205e-005 65.662 3.42586
  CHANNELS 6 Xposition Yposition Zposition Zrotation Xrotation Yrotation
  JOINT Chest
  {
    OFFSET 0 8.7983 -4.7612
    CHANNELS 6 Xposition Yposition Zposition Zrotation Xrotation Yrotation
    JOINT Chest2
    {
      OFFSET 0 8.0291 0.4195
      CHANNELS 6 Xposition Yposition Zposition Zrotation Xrotation Yrotation
      JOINT Chest3
      {
        OFFSET 0 9.9351 -2.2114
        CHANNELS 6 Xposition Yposition Zposition Zrotation Xrotation Yrotation
        JOINT Neck
        {
          OFFSET 0 22.3885 -0.4656
          CHANNELS 6 Xposition Yposition Zposition Zrotation Xrotation Yrotation
          JOINT Head
          {
            OFFSET -0.0001 12.643 3.4389
            CHANNELS 6 Xposition Yposition Zposition Zrotation Xrotation Yrotation
            End Site
            {
              OFFSET 0.0001 17.6655 0.5274
            }
          }
        }
        JOINT LeftCollar
        {
          OFFSET 2.2603 21.606 7.4023
          CHANNELS 6 Xposition Yposition Zposition Zrotation Xrotation Yrotation
          JOINT LeftShoulder
          {
            OFFSET 13.5163 -1.1332 -5.0146
            CHANNELS 6 Xposition Yposition Zposition Zrotation Xrotation Yrotation
            JOINT LeftElbow
            {
              OFFSET -0.0995 -28.05 -0.2431
              CHANNELS 6 Xposition Yposition Zposition Zrotation Xrotation Yrotation
              JOINT LeftWrist
              {
                OFFSET 0.0679 -23.3996 -0.1402
                CHANNELS 6 Xposition Yposition Zposition Zrotation Xrotation Yrotation
                JOINT LeftFinger1
                {
                  OFFSET 0.7932 -9.069 2.5189
                  CHANNELS 6 Xposition Yposition Zposition Zrotation Xrotation Yrotation
                  JOINT LeftFinger11
                  {
                    OFFSET -0.8272 -3.3923 0.5977
                    CHANNELS 6 Xposition Yposition Zposition Zrotation Xrotation Yrotation
                    JOINT LeftFinger12
                    {
                      OFFSET -0.5649 -2.3158 0.4082
                      CHANNELS 6 Xposition Yposition Zposition Zrotation Xrotation Yrotation
                      End Site
                      {
                        OFFSET -0.4919 -1.6479 0.2673
                      }
                    }
                  }
                }
                JOINT LeftFinger2
                {
                  OFFSET 0.9159 -9.2044 0.2193
                  CHANNELS 6 Xposition Yposition Zposition Zrotation Xrotation Yrotation
                  JOINT LeftFinger21
                  {
                    OFFSET 0.0117 -4.1944 -0.0248
                    CHANNELS 6 Xposition Yposition Zposition Zrotation Xrotation Yrotation
                    JOINT LeftFinger22
                    {
                      OFFSET 0.0071 -2.3249 -0.0142
                      CHANNELS 6 Xposition Yposition Zposition Zrotation Xrotation Yrotation
                      End Site
                      {
                        OFFSET -0.1475 -2.0882 0.0028
                      }
                    }
                  }
                }
                JOINT LeftFinger3
                {
                  OFFSET 0.6113 -8.7231 -2.0637
                  CHANNELS 6 Xposition Yposition Zposition Zrotation Xrotation Yrotation
                  JOINT LeftFinger31
                  {
                    OFFSET -0.1927 -3.8059 -0.2383
                    CHANNELS 6 Xposition Yposition Zposition Zrotation Xrotation Yrotation
                    JOINT LeftFinger32
                    {
                      OFFSET -0.1091 -2.1688 -0.1362
                      CHANNELS 6 Xposition Yposition Zposition Zrotation Xrotation Yrotation
                      End Site
                      {
                        OFFSET -0.2358 -1.9176 -0.0906
                      }
                    }
                  }
                }
                JOINT LeftFinger4
                {
                  OFFSET -0.6151 -8.0947 -3.5641
                  CHANNELS 6 Xposition Yposition Zposition Zrotation Xrotation Yrotation
                  JOINT LeftFinger41
                  {
                    OFFSET -0.4882 -2.341 -0.6462
                    CHANNELS 6 Xposition Yposition Zposition Zrotation Xrotation Yrotation
                    JOINT LeftFinger42
                    {
                      OFFSET -0.3575 -1.7167 -0.4742
                      CHANNELS 6 Xposition Yposition Zposition Zrotation Xrotation Yrotation
                      End Site
                      {
                        OFFSET -0.4187 -1.5237 -0.3496
                      }
                    }
                  }
                }
                JOINT LeftFinger0
                {
                  OFFSET -1.42 -1.8761 1.4223
                  CHANNELS 6 Xposition Yposition Zposition Zrotation Xrotation Yrotation
                  JOINT LeftFinger01
                  {
                    OFFSET -1.1471 -3.4929 2.6334
                    CHANNELS 6 Xposition Yposition Zposition Zrotation Xrotation Yrotation
                    JOINT LeftFinger02
                    {
                      OFFSET -0.823 -2.3 1.6571
                      CHANNELS 6 Xposition Yposition Zposition Zrotation Xrotation Yrotation
                      End Site
                      {
                        OFFSET -0.5822 -1.6914 1.1582
                      }
                    }
                  }
                }
              }
            }
          }
        }
        JOINT RightCollar
        {
          OFFSET -2.2603 21.606 7.4023
          CHANNELS 6 Xposition Yposition Zposition Zrotation Xrotation Yrotation
          JOINT RightShoulder
          {
            OFFSET -13.5187 -1.1334 -5.0155
            CHANNELS 6 Xposition Yposition Zposition Zrotation Xrotation Yrotation
            JOINT RightElbow
            {
              OFFSET 0.0994 -28.0499 -0.2431
              CHANNELS 6 Xposition Yposition Zposition Zrotation Xrotation Yrotation
              JOINT RightWrist
              {
                OFFSET -0.0679 -23.3996 -0.1402
                CHANNELS 6 Xposition Yposition Zposition Zrotation Xrotation Yrotation
                JOINT RightFinger1
                {
                  OFFSET -0.7932 -9.0691 2.5189
                  CHANNELS 6 Xposition Yposition Zposition Zrotation Xrotation Yrotation
                  JOINT RightFinger11
                  {
                    OFFSET 0.8272 -3.3923 0.5977
                    CHANNELS 6 Xposition Yposition Zposition Zrotation Xrotation Yrotation
                    JOINT RightFinger12
                    {
                      OFFSET 0.565 -2.3158 0.4082
                      CHANNELS 6 Xposition Yposition Zposition Zrotation Xrotation Yrotation
                      End Site
                      {
                        OFFSET 0.4919 -1.6479 0.2673
                      }
                    }
                  }
                }
                JOINT RightFinger2
                {
                  OFFSET -0.916 -9.2044 0.2193
                  CHANNELS 6 Xposition Yposition Zposition Zrotation Xrotation Yrotation
                  JOINT RightFinger21
                  {
                    OFFSET -0.0117 -4.1944 -0.0248
                    CHANNELS 6 Xposition Yposition Zposition Zrotation Xrotation Yrotation
                    JOINT RightFinger22
                    {
                      OFFSET -0.0071 -2.3249 -0.0142
                      CHANNELS 6 Xposition Yposition Zposition Zrotation Xrotation Yrotation
                      End Site
                      {
                        OFFSET 0.1475 -2.0882 0.0028
                      }
                    }
                  }
                }
                JOINT RightFinger3
                {
                  OFFSET -0.6113 -8.7231 -2.0637
                  CHANNELS 6 Xposition Yposition Zposition Zrotation Xrotation Yrotation
                  JOINT RightFinger31
                  {
                    OFFSET 0.1927 -3.8059 -0.2383
                    CHANNELS 6 Xposition Yposition Zposition Zrotation Xrotation Yrotation
                    JOINT RightFinger32
                    {
                      OFFSET 0.1091 -2.1688 -0.1362
                      CHANNELS 6 Xposition Yposition Zposition Zrotation Xrotation Yrotation
                      End Site
                      {
                        OFFSET 0.2358 -1.9176 -0.0906
                      }
                    }
                  }
                }
                JOINT RightFinger4
                {
                  OFFSET 0.6151 -8.0947 -3.564
                  CHANNELS 6 Xposition Yposition Zposition Zrotation Xrotation Yrotation
                  JOINT RightFinger41
                  {
                    OFFSET 0.4882 -2.341 -0.6462
                    CHANNELS 6 Xposition Yposition Zposition Zrotation Xrotation Yrotation
                    JOINT RightFinger42
                    {
                      OFFSET 0.3574 -1.7166 -0.4742
                      CHANNELS 6 Xposition Yposition Zposition Zrotation Xrotation Yrotation
                      End Site
                      {
                        OFFSET 0.4187 -1.5237 -0.3496
                      }
                    }
                  }
                }
                JOINT RightFinger0
                {
                  OFFSET 1.4199 -1.8761 1.4221
                  CHANNELS 6 Xposition Yposition Zposition Zrotation Xrotation Yrotation
                  JOINT RightFinger01
                  {
                    OFFSET 1.1472 -3.4929 2.6336
                    CHANNELS 6 Xposition Yposition Zposition Zrotation Xrotation Yrotation
                    JOINT RightFinger02
                    {
                      OFFSET 0.8229 -2.3 1.6571
                      CHANNELS 6 Xposition Yposition Zposition Zrotation Xrotation Yrotation
                      End Site
                      {
                        OFFSET 0.5822 -1.6914 1.1582
                      }
                    }
                  }
                }
              }
            }
          }
        }
      }
    }
  }
  JOINT RightHip
  {
    OFFSET -9.412 3.9771 -0.7758
    CHANNELS 6 Xposition Yposition Zposition Zrotation Xrotation Yrotation
    JOINT RightKnee
    {
      OFFSET -0.7531 -40.938 0
      CHANNELS 6 Xposition Yposition Zposition Zrotation Xrotation Yrotation
      JOINT RightAnkle
      {
        OFFSET 0 -40.1986 0
        CHANNELS 6 Xposition Yposition Zposition Zrotation Xrotation Yrotation
        JOINT RightToe
        {
          OFFSET 0 -4.4182 9.239
          CHANNELS 6 Xposition Yposition Zposition Zrotation Xrotation Yrotation
          End Site
          {
            OFFSET 0 0 6.1981
          }
        }
      }
    }
  }
  JOINT LeftHip
  {
    OFFSET 9.4119 3.9773 -0.7758
    CHANNELS 6 Xposition Yposition Zposition Zrotation Xrotation Yrotation
    JOINT LeftKnee
    {
      OFFSET 0.7532 -40.9383 0
      CHANNELS 6 Xposition Yposition Zposition Zrotation Xrotation Yrotation
      JOINT LeftAnkle
      {
        OFFSET 0 -40.1986 0
        CHANNELS 6 Xposition Yposition Zposition Zrotation Xrotation Yrotation
        JOINT LeftToe
        {
          OFFSET 0 -4.4182 9.239
          CHANNELS 6 Xposition Yposition Zposition Zrotation Xrotation Yrotation
          End Site
          {
            OFFSET 0 0 6.1981
          }
        }
      }
    }
  }
}
MOTION
Frames:	4
Frame Time:	0.0333333
39.9188 -5.93794 47.8437 3.3853e-006 76.1488 -4.4259e-006 7.10543e-015 8.7983 -4.7612 -0.464449 2.9852 -0.194167 7.10543e-015 8.0291 0.4195 -0.920629 5.97181 -0.364804 0 9.9351 -2.2114 -0.920629 5.97183 -0.364804 0 22.3885 -0.4656 -0.00219591 -3.23053 -44.0018 -0.0001 12.643 3.4389 -2.4717 -16.8607 -31.4955 2.2603 21.606 7.4023 -3.72047 8.8673 -19.194 13.5163 -1.1332 -5.0146 60.5739 4.22228 62.4155 -0.0995 -28.05 -0.2431 41.8235 -47.5033 22.1596 0.0679 -23.3996 -0.1402 30.7239 -23.4651 36.2374 0.7932 -9.069 2.5189 -3.97569e-016 9.54166e-015 -0 -0.8272 -3.3923 0.5977 -1.10503e-006 1.81614e-006 -4.66993e-006 -0.5649 -2.3158 0.4082 1.10503e-006 -1.81614e-006 4.66993e-006 0.9159 -9.2044 0.2193 -3.97569e-016 9.54166e-015 -0 0.0117 -4.1944 -0.0248 -0.0128303 0.00233173 8.34147e-005 0.0071 -2.3249 -0.0142 -6.75868e-015 -6.36111e-015 1.11319e-014 0.6113 -8.7231 -2.0637 -3.97569e-016 9.54166e-015 -0 -0.1927 -3.8059 -0.2383 -0.0160446 0.00299288 0.00085692 -0.1091 -2.1688 -0.1362 7.95139e-016 -6.36111e-015 1.98785e-016 -0.6151 -8.0947 -3.5641 -3.97569e-016 9.54166e-015 -0 -0.4882 -2.341 -0.6462 -0.0125946 0.00312018 0.00283068 -0.3575 -1.7167 -0.4742 -7.95139e-016 6.36111e-015 1.59028e-015 -1.42 -1.8761 1.4223 -3.97569e-016 9.54166e-015 -0 -1.1471 -3.4929 2.6334 -1.10503e-006 1.81614e-006 -4.66993e-006 -0.823 -2.3 1.6571 1.10503e-006 -1.81614e-006 4.66993e-006 -2.2603 21.606 7.4023 50.2575 -13.8705 11.0342 -13.5187 -1.1334 -5.0155 -55.9921 -0.673396 -52.6484 0.0994 -28.0499 -0.2431 -36.8133 -39.7379 -22.0229 -0.0679 -23.3996 -0.1402 -8.6814 -31.542 -14.9839 -0.7932 -9.0691 2.5189 3.97569e-016 0 -3.97569e-016 0.8272 -3.3923 0.5977 -4.24244e-007 1.25071e-006 3.70342e-008 0.565 -2.3158 0.4082 -4.96962e-017 0 -1.19271e-015 -0.916 -9.2044 0.2193 3.97569e-016 0 -3.97569e-016 -0.0117 -4.1944 -0.0248 0.012944 0.00231654 -8.68183e-005 -0.0071 -2.3249 -0.0142 9.93923e-016 7.95139e-016 1.59028e-015 -0.6113 -8.7231 -2.0637 3.97569e-016 0 -3.97569e-016 0.1927 -3.8059 -0.2383 0.0163172 0.00303277 -0.000873844 0.1091 -2.1688 -0.1362 -8.94531e-016 -7.95139e-016 7.95139e-016 0.6151 -8.0947 -3.564 3.97569e-016 0 -3.97569e-016 0.4882 -2.341 -0.6462 0.0145589 0.00367842 -0.00325992 0.3574 -1.7166 -0.4742 2.98177e-016 0 7.95139e-016 1.4199 -1.8761 1.4221 3.97569e-016 0 -3.97569e-016 1.1472 -3.4929 2.6336 -4.24244e-007 1.25071e-006 3.70342e-008 0.8229 -2.3 1.6571 -4.96962e-017 0 -1.19271e-015 -9.412 3.9771 -0.7758 -6.73184 9.29623 -52.8207 -0.7531 -40.938 -3.55271e-015 7.38337 24.4136 -22.4187 0 -40.1986 -3.55271e-015 -13.2006 37.1858 9.19736 0 -4.4182 9.239 8.10415e-006 -4.06404e-006 3.94561e-006 9.4119 3.9773 -0.7758 4.23939 12.5689 47.4746 0.7532 -40.9383 -7.10543e-015 -4.86655 10.1462 20.6777 1.77636e-015 -40.1986 0 5.07616 36.1546 -4.71053 -3.55271e-015 -4.4182 9.239 1.24388e-006 1.3167e-005 1.16931e-006 
39.9176 -5.92258 47.8302 -2.00894e-007 76.2989 -8.20822e-007 0 8.7983 -4.7612 -0.456111 2.861 -0.194666 7.10543e-015 8.0291 0.4195 -0.904167 5.72344 -0.367178 -7.10543e-015 9.9351 -2.2114 -0.904169 5.72345 -0.367178 7.10543e-015 22.3885 -0.4656 -0.00223473 -2.95529 -44.0018 -0.0001 12.643 3.4389 -2.3404 -16.7863 -31.2042 2.2603 21.606 7.4023 -3.94438 8.42784 -19.1202 13.5163 -1.1332 -5.0146 60.5739 4.22227 62.4155 -0.0995 -28.05 -0.2431 41.8078 -47.4901 22.1486 0.0679 -23.3996 -0.1402 30.0075 -23.9826 35.7651 0.7932 -9.069 2.5189 1.19271e-015 3.18055e-015 -3.97569e-016 -0.8272 -3.3923 0.5977 2.38542e-015 3.18055e-015 -1.98785e-016 -0.5649 -2.3158 0.4082 1.59028e-015 3.18055e-015 -1.98785e-016 0.9159 -9.2044 0.2193 1.19271e-015 3.18055e-015 -3.97569e-016 0.0117 -4.1944 -0.0248 -0.0128136 0.0023228 7.93184e-005 0.0071 -2.3249 -0.0142 3.97569e-016 -9.54166e-015 1.59028e-015 0.6113 -8.7231 -2.0637 1.19271e-015 3.18055e-015 -3.97569e-016 -0.1927 -3.8059 -0.2383 -0.016042 0.00299066 0.000852197 -0.1091 -2.1688 -0.1362 1.98785e-015 0 -1.59028e-015 -0.6151 -8.0947 -3.5641 1.19271e-015 3.18055e-015 -3.97569e-016 -0.4882 -2.341 -0.6462 -0.0125818 0.00311346 0.00282256 -0.3575 -1.7167 -0.4742 3.97569e-016 3.18055e-015 9.93923e-016 -1.42 -1.8761 1.4223 1.19271e-015 3.18055e-015 -3.97569e-016 -1.1471 -3.4929 2.6334 2.38542e-015 3.18055e-015 -1.98785e-016 -0.823 -2.3 1.6571 1.59028e-015 3.18055e-015 -1.98785e-016 -2.2603 21.606 7.4023 50.1723 -13.694 10.2879 -13.5187 -1.1334 -5.0155 -55.9294 -1.11141 -52.7972 0.0994 -28.0499 -0.2431 -37.0799 -39.8309 -22.2365 -0.0679 -23.3996 -0.1402 -8.04545 -31.6347 -14.4299 -0.7932 -9.0691 2.5189 -3.65988e-007 8.34245e-007 6.73547e-007 0.8272 -3.3923 0.5977 -1.98785e-016 1.59028e-015 -3.97569e-016 0.565 -2.3158 0.4082 -1.94194e-008 1.27123e-006 -2.1217e-007 -0.916 -9.2044 0.2193 -3.65988e-007 8.34245e-007 6.73547e-007 -0.0117 -4.1944 -0.0248 0.012964 0.00231935 -8.77183e-005 -0.0071 -2.3249 -0.0142 4.47266e-016 4.31639e-007 -3.97569e-016 -0.6113 -8.7231 -2.0637 -3.65988e-007 8.34245e-007 6.73547e-007 0.1927 -3.8059 -0.2383 0.016351 0.00303588 -0.000874948 0.1091 -2.1688 -0.1362 -5.14654e-007 1.02143e-006 -3.96963e-007 0.6151 -8.0947 -3.564 -3.65988e-007 8.34245e-007 6.73547e-007 0.4882 -2.341 -0.6462 0.014586 0.00368037 -0.00326232 0.3574 -1.7166 -0.4742 1.68967e-015 1.27637e-006 -1.19271e-015 1.4199 -1.8761 1.4221 -3.65988e-007 8.34245e-007 6.73547e-007 1.1472 -3.4929 2.6336 -1.98785e-016 1.59028e-015 -3.97569e-016 0.8229 -2.3 1.6571 -1.94194e-008 1.27123e-006 -2.1217e-007 -9.412 3.9771 -0.7758 -6.6762 9.00474 -52.3292 -0.7531 -40.938 0 7.38338 24.4121 -22.3968 -1.77636e-015 -40.1986 0 -12.647 37.299 8.5235 0 -4.4182 9.239 -4.74797e-007 -2.877e-006 -7.06399e-007 9.4119 3.9773 -0.7758 4.30098 12.2974 47.3923 0.7532 -40.9383 0 -4.87231 10.4861 20.6875 -1.77636e-015 -40.1986 0 5.00752 35.9912 -4.69328 0 -4.4182 9.239 -1.83221e-005 -1.68189e-005 -5.1644e-007 
39.9165 -5.90717 47.8168 -6.03697e-007 76.4489 -3.70294e-007 7.10543e-015 8.7983 -4.7612 -0.447753 2.73692 -0.19524 -7.10543e-015 8.0291 0.4195 -0.887677 5.4753 -0.369667 0 9.9351 -2.2114 -0.887678 5.47526 -0.369668 0 22.3885 -0.4656 -0.0022628 -2.68023 -44.0018 -0.0001 12.643 3.4389 -2.20955 -16.7113 -30.9132 2.2603 21.606 7.4023 -4.16743 7.98795 -19.0482 13.5163 -1.1332 -5.0146 60.5738 4.22233 62.4155 -0.0995 -28.05 -0.2431 41.7921 -47.4768 22.1377 0.0679 -23.3996 -0.1402 29.2836 -24.4944 35.2839 0.7932 -9.069 2.5189 5.60448e-006 -6.13187e-006 -2.50959e-006 -0.8272 -3.3923 0.5977 -1.59028e-015 3.18055e-015 -1.98785e-016 -0.5649 -2.3158 0.4082 -1.19271e-015 0 -3.97569e-016 0.9159 -9.2044 0.2193 5.60448e-006 -6.13187e-006 -2.50959e-006 0.0117 -4.1944 -0.0248 -0.0128183 0.00232115 8.37949e-005 0.0071 -2.3249 -0.0142 -3.97569e-016 6.36111e-015 -3.37934e-015 0.6113 -8.7231 -2.0637 5.60448e-006 -6.13187e-006 -2.50959e-006 -0.1927 -3.8059 -0.2383 -0.0160398 0.00299207 0.000853343 -0.1091 -2.1688 -0.1362 -3.97569e-016 6.36111e-015 1.78906e-015 -0.6151 -8.0947 -3.5641 5.60448e-006 -6.13187e-006 -2.50959e-006 -0.4882 -2.341 -0.6462 -0.0126061 0.00312307 0.00282575 -0.3575 -1.7167 -0.4742 1.19271e-015 3.18055e-015 -2.98177e-015 -1.42 -1.8761 1.4223 5.60448e-006 -6.13187e-006 -2.50959e-006 -1.1471 -3.4929 2.6334 -1.59028e-015 3.18055e-015 -1.98785e-016 -0.823 -2.3 1.6571 -1.19271e-015 0 -3.97569e-016 -2.2603 21.606 7.4023 50.0895 -13.5165 9.54257 -13.5187 -1.1334 -5.0155 -55.8683 -1.55176 -52.9456 0.0994 -28.0499 -0.2431 -37.3479 -39.9218 -22.4495 -0.0679 -23.3996 -0.1402 -7.40787 -31.7222 -13.8741 -0.7932 -9.0691 2.5189 6.95746e-016 1.59028e-015 7.95139e-016 0.8272 -3.3923 0.5977 5.96354e-016 0 -3.97569e-016 0.565 -2.3158 0.4082 1.39149e-015 0 3.97569e-016 -0.916 -9.2044 0.2193 6.95746e-016 1.59028e-015 7.95139e-016 -0.0117 -4.1944 -0.0248 0.0129704 0.00231804 -8.81208e-005 -0.0071 -2.3249 -0.0142 1.21756e-014 7.95139e-016 3.97569e-016 -0.6113 -8.7231 -2.0637 6.95746e-016 1.59028e-015 7.95139e-016 0.1927 -3.8059 -0.2383 0.0163295 0.00303367 -0.000873378 0.1091 -2.1688 -0.1362 4.47266e-016 7.95139e-016 1.19271e-015 0.6151 -8.0947 -3.564 6.95746e-016 1.59028e-015 7.95139e-016 0.4882 -2.341 -0.6462 0.014565 0.00367341 -0.0032593 0.3574 -1.7166 -0.4742 -1.2921e-015 0 3.97569e-016 1.4199 -1.8761 1.4221 6.95746e-016 1.59028e-015 7.95139e-016 1.1472 -3.4929 2.6336 5.96354e-016 0 -3.97569e-016 0.8229 -2.3 1.6571 1.39149e-015 0 3.97569e-016 -9.412 3.9771 -0.7758 -6.61828 8.71381 -51.8377 -0.7531 -40.938 3.55271e-015 7.38361 24.411 -22.3749 -1.77636e-015 -40.1986 -3.55271e-015 -12.0908 37.4065 7.84719 0 -4.4182 9.239 1.29045e-005 3.05739e-006 -3.06029e-006 9.4119 3.9773 -0.7758 4.08106 12.2748 47.358 0.7532 -40.9383 0 -4.86576 10.0776 20.6755 -1.77636e-015 -40.1986 7.10543e-015 5.08908 36.182 -4.7136 -3.55272e-015 -4.4182 9.239 -1.18862e-005 9.68309e-006 8.34238e-006 
39.9154 -5.89173 47.8035 -2.36803e-008 76.599 -1e-006 7.10543e-015 8.7983 -4.7612 -0.439362 2.61288 -0.195881 -7.10543e-015 8.0291 0.4195 -0.87113 5.22717 -0.372257 0 9.9351 -2.2114 -0.87113 5.22716 -0.372257 0 22.3885 -0.4656 -0.0023448 -2.40479 -44.0018 -0.0001 12.643 3.4389 -2.07914 -16.6356 -30.6225 2.2603 21.606 7.4023 -4.38974 7.54825 -18.9781 13.5163 -1.1332 -5.0146 60.5738 4.22237 62.4155 -0.0995 -28.05 -0.2431 41.7764 -47.4636 22.1267 0.0679 -23.3996 -0.1402 28.5524 -25.0005 34.7938 0.7932 -9.069 2.5189 -1.19271e-015 -9.54166e-015 1.98785e-016 -0.8272 -3.3923 0.5977 -3.25512e-006 -2.38319e-006 1.96853e-006 -0.5649 -2.3158 0.4082 -3.97569e-016 -6.36111e-015 -1.39149e-015 0.9159 -9.2044 0.2193 -1.19271e-015 -9.54166e-015 1.98785e-016 0.0117 -4.1944 -0.0248 -0.0128306 0.00233435 8.89859e-005 0.0071 -2.3249 -0.0142 -6.75868e-015 -9.54166e-015 1.07344e-014 0.6113 -8.7231 -2.0637 -1.19271e-015 -9.54166e-015 1.98785e-016 -0.1927 -3.8059 -0.2383 -0.0160494 0.00299538 0.000858441 -0.1091 -2.1688 -0.1362 3.97569e-016 -1.59028e-014 1.98785e-015 -0.6151 -8.0947 -3.5641 -1.19271e-015 -9.54166e-015 1.98785e-016 -0.4882 -2.341 -0.6462 -0.0126543 0.00314275 0.00285721 -0.3575 -1.7167 -0.4742 -1.59028e-015 9.54166e-015 -1.98785e-016 -1.42 -1.8761 1.4223 -1.19271e-015 -9.54166e-015 1.98785e-016 -1.1471 -3.4929 2.6334 -3.25512e-006 -2.38319e-006 1.96853e-006 -0.823 -2.3 1.6571 -3.97569e-016 -6.36111e-015 -1.39149e-015 -2.2603 21.606 7.4023 50.0092 -13.3378 8.79797 -13.5187 -1.1334 -5.0155 -55.806 -1.98213 -53.0933 0.0994 -28.0499 -0.2431 -37.6141 -40.0182 -22.6698 -0.0679 -23.3996 -0.1402 -6.76889 -31.8044 -13.3169 -0.7932 -9.0691 2.5189 -5.82821e-007 1.9838e-006 8.99643e-007 0.8272 -3.3923 0.5977 4.96962e-017 -7.95139e-016 -3.97569e-016 0.565 -2.3158 0.4082 -5.82476e-008 4.23157e-007 -6.36506e-007 -0.916 -9.2044 0.2193 -5.82821e-007 1.9838e-006 8.99643e-007 -0.0117 -4.1944 -0.0248 0.0129508 0.00231469 -8.75801e-005 -0.0071 -2.3249 -0.0142 -7.76408e-008 8.43848e-007 -8.48677e-007 -0.6113 -8.7231 -2.0637 -5.82821e-007 1.9838e-006 8.99643e-007 0.1927 -3.8059 -0.2383 0.0163435 0.00303647 -0.000874452 0.1091 -2.1688 -0.1362 -7.95139e-016 4.28287e-007 -0 0.6151 -8.0947 -3.564 -5.82821e-007 1.9838e-006 8.99643e-007 0.4882 -2.341 -0.6462 0.0145395 0.00366906 -0.00325392 0.3574 -1.7166 -0.4742 9.70278e-008 4.33421e-007 1.06085e-006 1.4199 -1.8761 1.4221 -5.82821e-007 1.9838e-006 8.99643e-007 1.1472 -3.4929 2.6336 4.96962e-017 -7.95139e-016 -3.97569e-016 0.8229 -2.3 1.6571 -5.82476e-008 4.23157e-007 -6.36506e-007 -9.412 3.9771 -0.7758 -6.55779 8.42256 -51.3464 -0.7531 -40.938 -3.55271e-015 7.38315 24.4104 -22.353 0 -40.1986 -3.55271e-015 -11.5324 37.5087 7.16869 0 -4.4182 9.239 1.31372e-006 -6.02737e-006 -5.98478e-007 9.4119 3.9773 -0.7758 4.03397 12.0993 47.294 0.7532 -40.9383 7.10543e-015 -4.86685 10.1293 20.6769 0 -40.1986 0 5.07833 36.155 -4.71081 -3.55271e-015 -4.4182 9.239 -1.24082e-006 8.69211e-007 -1.17263e-006 
